# xmcd CD database file
#
# Track frame offsets:
#	150
#	31172
#	61407
#	95267
#	113384
#	140269
#	155581
#	164428
#	184155
#	208659
#	220891
#	243230
#	286969
#
# Disc length: 3987 seconds
#
# Revision: 0
# Processed by: cddbd v1.5.2PL0 Copyright (c) Steve Scherf et al.
# Submitted via: CDex 1.51
#
DISCID=b00f910d
DTITLE=Judy Bailey - The Spritely Ones
DYEAR=2001
DGENRE=Jazz
TTITLE0=The Spritely Ones
TTITLE1=Fat Lady Waltz
TTITLE2=Sunday Sequence
TTITLE3=When Monk meets Picasso
TTITLE4=Theme 3
TTITLE5=Cakewalk Nostalgie
TTITLE6=Waltzing Matilda
TTITLE7=Children's Suite - Little Early Morning Song
TTITLE8=Children's Suite - Lonely Child
TTITLE9=Children's Suite - Now I'm Walkin'
TTITLE10=Children's Suite - Rocking Horse
TTITLE11=Children's Suite - Hide'n'seek
TTITLE12=Children's Suite - Lullaby
EXTD=YEAR: 2001
EXTT0=
EXTT1=
EXTT2=
EXTT3=
EXTT4=
EXTT5=
EXTT6=
EXTT7=
EXTT8=
EXTT9=
EXTT10=
EXTT11=
EXTT12=
PLAYORDER=
